<svg xmlns="http://www.w3.org/2000/svg" xmlns:xlink="http://www.w3.org/1999/xlink" width="408" zoomAndPan="magnify" viewBox="0 0 306 160.499995" height="214" preserveAspectRatio="xMidYMid meet" version="1.0"><defs><g/><clipPath id="f8120401be"><path d="M 0.476562 4 L 85 4 L 85 156 L 0.476562 156 Z M 0.476562 4 " clip-rule="nonzero"/></clipPath><clipPath id="28254dd544"><path d="M 0.476562 5 L 99 5 L 99 126 L 0.476562 126 Z M 0.476562 5 " clip-rule="nonzero"/></clipPath><clipPath id="655b57acb7"><path d="M 0.476562 18 L 93 18 L 93 156 L 0.476562 156 Z M 0.476562 18 " clip-rule="nonzero"/></clipPath></defs><g fill="#000000" fill-opacity="1"><g transform="translate(48.251899, 102.208618)"><g><path d="M 47.796875 -19.15625 L 17.09375 -19.15625 C 17.09375 -16.175781 18.050781 -13.972656 19.96875 -12.546875 C 21.894531 -11.117188 23.988281 -10.40625 26.25 -10.40625 C 28.613281 -10.40625 30.484375 -10.71875 31.859375 -11.34375 C 33.234375 -11.976562 34.800781 -13.234375 36.5625 -15.109375 L 47.140625 -9.828125 C 42.734375 -2.453125 35.410156 1.234375 25.171875 1.234375 C 18.785156 1.234375 13.3125 -0.953125 8.75 -5.328125 C 4.1875 -9.703125 1.90625 -14.96875 1.90625 -21.125 C 1.90625 -27.289062 4.1875 -32.570312 8.75 -36.96875 C 13.3125 -41.375 18.785156 -43.578125 25.171875 -43.578125 C 31.890625 -43.578125 37.351562 -41.640625 41.5625 -37.765625 C 45.769531 -33.890625 47.875 -28.34375 47.875 -21.125 C 47.875 -20.132812 47.847656 -19.476562 47.796875 -19.15625 Z M 17.5 -27.234375 L 33.59375 -27.234375 C 33.257812 -29.441406 32.390625 -31.132812 30.984375 -32.3125 C 29.585938 -33.5 27.789062 -34.09375 25.59375 -34.09375 C 23.164062 -34.09375 21.238281 -33.457031 19.8125 -32.1875 C 18.382812 -30.925781 17.613281 -29.273438 17.5 -27.234375 Z M 17.5 -27.234375 "/></g></g></g><g fill="#000000" fill-opacity="1"><g transform="translate(91.588569, 102.208618)"><g><path d="M 4.953125 0 L 4.953125 -42.34375 L 19.5625 -42.34375 L 19.5625 -37.890625 L 19.734375 -37.890625 C 23.523438 -41.679688 27.566406 -43.578125 31.859375 -43.578125 C 33.953125 -43.578125 36.03125 -43.300781 38.09375 -42.75 C 40.15625 -42.207031 42.132812 -41.359375 44.03125 -40.203125 C 45.9375 -39.046875 47.476562 -37.40625 48.65625 -35.28125 C 49.84375 -33.164062 50.4375 -30.707031 50.4375 -27.90625 L 50.4375 0 L 35.828125 0 L 35.828125 -23.9375 C 35.828125 -26.132812 35.125 -28.054688 33.71875 -29.703125 C 32.3125 -31.359375 30.484375 -32.1875 28.234375 -32.1875 C 26.023438 -32.1875 24.023438 -31.332031 22.234375 -29.625 C 20.453125 -27.925781 19.5625 -26.03125 19.5625 -23.9375 L 19.5625 0 Z M 4.953125 0 "/></g></g></g><g fill="#000000" fill-opacity="1"><g transform="translate(139.712983, 102.208618)"><g><path d="M 4.953125 0 L 4.953125 -42.34375 L 19.5625 -42.34375 L 19.5625 -36.234375 L 19.734375 -36.234375 C 19.835938 -36.453125 20.015625 -36.726562 20.265625 -37.0625 C 20.515625 -37.394531 21.050781 -37.972656 21.875 -38.796875 C 22.695312 -39.617188 23.578125 -40.359375 24.515625 -41.015625 C 25.453125 -41.679688 26.660156 -42.273438 28.140625 -42.796875 C 29.628906 -43.316406 31.144531 -43.578125 32.6875 -43.578125 C 34.28125 -43.578125 35.847656 -43.359375 37.390625 -42.921875 C 38.929688 -42.484375 40.0625 -42.046875 40.78125 -41.609375 L 41.9375 -40.9375 L 35.828125 -28.5625 C 34.003906 -30.101562 31.472656 -30.875 28.234375 -30.875 C 26.472656 -30.875 24.957031 -30.488281 23.6875 -29.71875 C 22.425781 -28.945312 21.53125 -28.007812 21 -26.90625 C 20.476562 -25.8125 20.109375 -24.878906 19.890625 -24.109375 C 19.671875 -23.335938 19.5625 -22.726562 19.5625 -22.28125 L 19.5625 0 Z M 4.953125 0 "/></g></g></g><g fill="#000000" fill-opacity="1"><g transform="translate(174.382164, 102.208618)"><g><path d="M 37.0625 -42.34375 L 53.90625 -42.34375 L 20.640625 21.46875 L 3.796875 21.46875 L 18.40625 -6.609375 L -1.65625 -42.34375 L 15.1875 -42.34375 L 27 -20.640625 Z M 37.0625 -42.34375 "/></g></g></g><g fill="#000000" fill-opacity="1"><g transform="translate(220.195252, 102.208618)"><g><path d="M 8.953125 -5.03125 C 4.253906 -9.21875 1.90625 -14.582031 1.90625 -21.125 C 1.90625 -27.675781 4.351562 -33.054688 9.25 -37.265625 C 14.144531 -41.472656 20.195312 -43.578125 27.40625 -43.578125 C 34.5 -43.578125 40.484375 -41.457031 45.359375 -37.21875 C 50.234375 -32.988281 52.671875 -27.625 52.671875 -21.125 C 52.671875 -14.632812 50.289062 -9.285156 45.53125 -5.078125 C 40.769531 -0.867188 34.726562 1.234375 27.40625 1.234375 C 19.8125 1.234375 13.660156 -0.851562 8.953125 -5.03125 Z M 20.265625 -28.3125 C 18.367188 -26.4375 17.421875 -24.039062 17.421875 -21.125 C 17.421875 -18.207031 18.328125 -15.828125 20.140625 -13.984375 C 21.953125 -12.140625 24.347656 -11.21875 27.328125 -11.21875 C 30.179688 -11.21875 32.53125 -12.15625 34.375 -14.03125 C 36.21875 -15.90625 37.140625 -18.269531 37.140625 -21.125 C 37.140625 -24.039062 36.191406 -26.4375 34.296875 -28.3125 C 32.398438 -30.1875 30.078125 -31.125 27.328125 -31.125 C 24.515625 -31.125 22.160156 -30.1875 20.265625 -28.3125 Z M 20.265625 -28.3125 "/></g></g></g><g clip-path="url(#f8120401be)"><path stroke-linecap="round" transform="matrix(0.353952, -0.658582, 0.658582, 0.353952, 0.472129, 98.287979)" fill="none" stroke-linejoin="miter" d="M 6.998394 6.998938 L 56.749973 6.998525 " stroke="#000000" stroke-width="14" stroke-opacity="1" stroke-miterlimit="4"/></g><g clip-path="url(#28254dd544)"><path stroke-linecap="round" transform="matrix(0.436946, -0.606704, 0.606704, 0.436946, 32.481948, 66.135794)" fill="none" stroke-linejoin="miter" d="M 6.999343 7.003051 L 5.117163 7.000072 " stroke="#004aad" stroke-width="14" stroke-opacity="1" stroke-miterlimit="4"/></g><g clip-path="url(#655b57acb7)"><path stroke-linecap="round" transform="matrix(0.36869, -0.650445, 0.650445, 0.36869, 15.372585, 98.102901)" fill="none" stroke-linejoin="miter" d="M 7.002834 7.00036 L 34.894066 7.003324 " stroke="#f79630" stroke-width="14" stroke-opacity="1" stroke-miterlimit="4"/></g></svg>