<svg xmlns="http://www.w3.org/2000/svg" xmlns:xlink="http://www.w3.org/1999/xlink" width="500" zoomAndPan="magnify" viewBox="0 0 375 374.999991" height="500" preserveAspectRatio="xMidYMid meet" version="1.0"><defs><g/></defs><g fill="#ffffff" fill-opacity="1"><g transform="translate(94.942629, 207.80823)"><g><path d="M 47.953125 -19.21875 L 17.140625 -19.21875 C 17.140625 -16.226562 18.101562 -14.015625 20.03125 -12.578125 C 21.96875 -11.148438 24.066406 -10.4375 26.328125 -10.4375 C 28.703125 -10.4375 30.578125 -10.753906 31.953125 -11.390625 C 33.335938 -12.023438 34.914062 -13.28125 36.6875 -15.15625 L 47.28125 -9.859375 C 42.863281 -2.453125 35.523438 1.25 25.265625 1.25 C 18.859375 1.25 13.363281 -0.941406 8.78125 -5.328125 C 4.195312 -9.722656 1.90625 -15.007812 1.90625 -21.1875 C 1.90625 -27.375 4.195312 -32.675781 8.78125 -37.09375 C 13.363281 -41.507812 18.859375 -43.71875 25.265625 -43.71875 C 31.992188 -43.71875 37.46875 -41.769531 41.6875 -37.875 C 45.914062 -33.988281 48.03125 -28.429688 48.03125 -21.203125 C 48.03125 -20.203125 48.003906 -19.539062 47.953125 -19.21875 Z M 17.5625 -27.328125 L 33.703125 -27.328125 C 33.367188 -29.535156 32.5 -31.234375 31.09375 -32.421875 C 29.6875 -33.609375 27.878906 -34.203125 25.671875 -34.203125 C 23.242188 -34.203125 21.3125 -33.566406 19.875 -32.296875 C 18.4375 -31.023438 17.664062 -29.367188 17.5625 -27.328125 Z M 17.5625 -27.328125 "/></g></g></g><g fill="#ffffff" fill-opacity="1"><g transform="translate(138.414305, 207.80823)"><g><path d="M 4.96875 0 L 4.96875 -42.484375 L 19.625 -42.484375 L 19.625 -38.015625 L 19.796875 -38.015625 C 23.597656 -41.816406 27.65625 -43.71875 31.96875 -43.71875 C 34.0625 -43.71875 36.144531 -43.441406 38.21875 -42.890625 C 40.289062 -42.335938 42.273438 -41.484375 44.171875 -40.328125 C 46.078125 -39.171875 47.625 -37.53125 48.8125 -35.40625 C 50 -33.28125 50.59375 -30.804688 50.59375 -27.984375 L 50.59375 0 L 35.9375 0 L 35.9375 -24.015625 C 35.9375 -26.222656 35.234375 -28.15625 33.828125 -29.8125 C 32.421875 -31.46875 30.585938 -32.296875 28.328125 -32.296875 C 26.117188 -32.296875 24.113281 -31.4375 22.3125 -29.71875 C 20.519531 -28.007812 19.625 -26.109375 19.625 -24.015625 L 19.625 0 Z M 4.96875 0 "/></g></g></g><g fill="#ffffff" fill-opacity="1"><g transform="translate(186.68864, 207.80823)"><g><path d="M 4.96875 0 L 4.96875 -42.484375 L 19.625 -42.484375 L 19.625 -36.359375 L 19.796875 -36.359375 C 19.898438 -36.578125 20.078125 -36.851562 20.328125 -37.1875 C 20.578125 -37.519531 21.113281 -38.097656 21.9375 -38.921875 C 22.769531 -39.753906 23.65625 -40.5 24.59375 -41.15625 C 25.53125 -41.820312 26.742188 -42.414062 28.234375 -42.9375 C 29.722656 -43.457031 31.242188 -43.71875 32.796875 -43.71875 C 34.398438 -43.71875 35.972656 -43.5 37.515625 -43.0625 C 39.054688 -42.625 40.1875 -42.179688 40.90625 -41.734375 L 42.0625 -41.078125 L 35.9375 -28.65625 C 34.113281 -30.195312 31.578125 -30.96875 28.328125 -30.96875 C 26.554688 -30.96875 25.035156 -30.582031 23.765625 -29.8125 C 22.492188 -29.039062 21.597656 -28.101562 21.078125 -27 C 20.554688 -25.894531 20.179688 -24.953125 19.953125 -24.171875 C 19.734375 -23.398438 19.625 -22.796875 19.625 -22.359375 L 19.625 0 Z M 4.96875 0 "/></g></g></g><g fill="#ffffff" fill-opacity="1"><g transform="translate(221.465825, 207.80823)"><g><path d="M 37.1875 -42.484375 L 54.078125 -42.484375 L 20.703125 21.53125 L 3.8125 21.53125 L 18.46875 -6.625 L -1.65625 -42.484375 L 15.234375 -42.484375 L 27.078125 -20.703125 Z M 37.1875 -42.484375 "/></g></g></g><g fill="#ffffff" fill-opacity="1"><g transform="translate(267.421632, 207.80823)"><g><path d="M 8.984375 -5.046875 C 4.265625 -9.242188 1.90625 -14.628906 1.90625 -21.203125 C 1.90625 -27.773438 4.359375 -33.171875 9.265625 -37.390625 C 14.179688 -41.609375 20.257812 -43.71875 27.5 -43.71875 C 34.613281 -43.71875 40.613281 -41.59375 45.5 -37.34375 C 50.382812 -33.09375 52.828125 -27.707031 52.828125 -21.1875 C 52.828125 -14.675781 50.441406 -9.304688 45.671875 -5.078125 C 40.898438 -0.859375 34.84375 1.25 27.5 1.25 C 19.875 1.25 13.703125 -0.847656 8.984375 -5.046875 Z M 20.328125 -28.40625 C 18.421875 -26.53125 17.46875 -24.128906 17.46875 -21.203125 C 17.46875 -18.273438 18.378906 -15.882812 20.203125 -14.03125 C 22.023438 -12.1875 24.425781 -11.265625 27.40625 -11.265625 C 30.28125 -11.265625 32.640625 -12.203125 34.484375 -14.078125 C 36.335938 -15.953125 37.265625 -18.328125 37.265625 -21.203125 C 37.265625 -24.128906 36.3125 -26.53125 34.40625 -28.40625 C 32.5 -30.28125 30.164062 -31.21875 27.40625 -31.21875 C 24.59375 -31.21875 22.234375 -30.28125 20.328125 -28.40625 Z M 20.328125 -28.40625 "/></g></g></g><path stroke-linecap="round" transform="matrix(0.355054, -0.660633, 0.660633, 0.355054, 47.014012, 203.875417)" fill="none" stroke-linejoin="miter" d="M 6.998489 7.002591 L 56.74936 7.0023 " stroke="#ffffff" stroke-width="14" stroke-opacity="1" stroke-miterlimit="4"/><path stroke-linecap="round" transform="matrix(0.438307, -0.608594, 0.608594, 0.438307, 79.12355, 171.622957)" fill="none" stroke-linejoin="miter" d="M 7.00235 7.000388 L 5.121789 7.000462 " stroke="#000000" stroke-width="14" stroke-opacity="1" stroke-miterlimit="4"/><path stroke-linecap="round" transform="matrix(0.369839, -0.652472, 0.652472, 0.369839, 61.960884, 203.689674)" fill="none" stroke-linejoin="miter" d="M 7.000443 6.999948 L 34.893568 7.000627 " stroke="#f79630" stroke-width="14" stroke-opacity="1" stroke-miterlimit="4"/></svg>